<?xml version="1.0" encoding="UTF-8"?>
<svg width="50px" height="50px" viewBox="0 0 50 50" version="1.1" xmlns="http://www.w3.org/2000/svg" xmlns:xlink="http://www.w3.org/1999/xlink">
    <!-- Generator: Sketch 52.6 (67491) - http://www.bohemiancoding.com/sketch -->
    <title>avito banner</title>
    <desc>Created with Sketch.</desc>
    <g id="Page-1" stroke="none" stroke-width="1" fill="none" fill-rule="evenodd">
        <g id="Socials" transform="translate(-100.000000, 0.000000)" fill="#646464">
            <g id="facebook" transform="translate(100.000000, 0.000000)">
                <path d="M24.8221239,49.6442478 C11.1132434,49.6442478 7.10542736e-14,38.5310044 7.10542736e-14,24.8221239 C7.10542736e-14,11.1132434 11.1132434,1.42108547e-14 24.8221239,1.42108547e-14 C38.5310044,1.42108547e-14 49.6442478,11.1132434 49.6442478,24.8221239 C49.6442478,38.5310044 38.5310044,49.6442478 24.8221239,49.6442478 Z M31.0623894,25.7938053 L31.6486726,20.0964602 L26.6336283,20.0964602 L26.6336283,16.7402655 C26.6336283,15.4814159 27.4654867,15.1858407 28.0570796,15.1858407 L31.6637168,15.1858407 L31.6637168,9.65044248 L26.6929204,9.62964602 C21.1761062,9.62964602 19.9225664,13.7619469 19.9225664,16.400885 L19.9225664,20.0911504 L16.7309735,20.0911504 L16.7309735,25.7938053 L19.9225664,25.7938053 L19.9225664,42.020354 L26.6331858,42.020354 L26.6331858,25.7938053 L31.0623894,25.7938053 Z" id="Combined-Shape"></path>
            </g>
        </g>
    </g>
</svg>