<?xml version="1.0" encoding="UTF-8" standalone="no"?>
<!-- Created with Inkscape (http://www.inkscape.org/) -->

<svg
   xmlns:dc="http://purl.org/dc/elements/1.1/"
   xmlns:cc="http://creativecommons.org/ns#"
   xmlns:rdf="http://www.w3.org/1999/02/22-rdf-syntax-ns#"
   xmlns:svg="http://www.w3.org/2000/svg"
   xmlns="http://www.w3.org/2000/svg"
   xmlns:sodipodi="http://sodipodi.sourceforge.net/DTD/sodipodi-0.dtd"
   xmlns:inkscape="http://www.inkscape.org/namespaces/inkscape"
   width="140mm"
   height="171mm"
   viewBox="0 0 140 171"
   version="1.1"
   id="svg8"
   inkscape:version="0.92.4 (unknown)"
   sodipodi:docname="first.svg">
  <defs
     id="defs2" />
  <sodipodi:namedview
     id="base"
     pagecolor="#ffffff"
     bordercolor="#666666"
     borderopacity="1.0"
     inkscape:pageopacity="0.0"
     inkscape:pageshadow="2"
     inkscape:zoom="0.7"
     inkscape:cx="351.44052"
     inkscape:cy="359.96516"
     inkscape:document-units="mm"
     inkscape:current-layer="layer1"
     showgrid="false"
     inkscape:window-width="1366"
     inkscape:window-height="711"
     inkscape:window-x="0"
     inkscape:window-y="0"
     inkscape:window-maximized="1" />
  <metadata
     id="metadata5">
    <rdf:RDF>
      <cc:Work
         rdf:about="">
        <dc:format>image/svg+xml</dc:format>
        <dc:type
           rdf:resource="http://purl.org/dc/dcmitype/StillImage" />
        <dc:title />
      </cc:Work>
    </rdf:RDF>
  </metadata>
  <g
     inkscape:label="Layer 1"
     inkscape:groupmode="layer"
     id="layer1"
     transform="translate(0,-126)">
    <path
       style="fill:#292929;fill-opacity:1;stroke:none;stroke-width:0.26458332px;stroke-linecap:butt;stroke-linejoin:miter;stroke-opacity:1"
       d="M 0.65385053,126.42863 H 139.65089 v 169.844 c 0,0 -1.74285,-0.19846 -2.60154,-0.37165 -2.63621,-0.53171 -5.22128,-1.29674 -7.80465,-2.04407 -2.55928,-0.74036 -5.08029,-1.60711 -7.61883,-2.41573 -3.09839,-0.98695 -6.23912,-1.85131 -9.29124,-2.9732 -3.0232,-1.11126 -5.99081,-2.37606 -8.9196,-3.7165 -4.407964,-2.01742 -8.764325,-4.15999 -13.007725,-6.50387 -3.55215,-1.96205 -7.006632,-4.10212 -10.406203,-6.31805 -3.987533,-2.59917 -7.92408,-5.28738 -11.706971,-8.1763 -4.22933,-3.22985 -8.282432,-6.69011 -12.264448,-10.22037 -3.758242,-3.33187 -7.560559,-6.64198 -10.963672,-10.33584 -3.698378,-4.01435 -6.993091,-8.39177 -10.22037,-12.79378 -2.694083,-3.67473 -5.210596,-7.4813 -7.618823,-11.34939 -2.623907,-4.21451 -5.19767,-8.47347 -7.433,-12.90634 -2.615758,-5.1873 -4.917673,-10.53904 -6.972393,-15.97304 -1.75011,-4.6284 -3.1632567,-9.3803 -4.5487518,-14.13061 -1.5059927,-5.16345 -3.0077857,-10.34032 -4.0881487,-15.60929 -1.094457,-5.33771 -1.842632,-10.74825 -2.415725,-16.16677 -0.626652,-5.92496 -1.11494897,-17.8392 -1.11494897,-17.8392 z"
       id="path12"
       inkscape:connector-curvature="0"
       sodipodi:nodetypes="cccaaaaaaaaaaaaaaaaac" />
  </g>
</svg>
