<?xml version="1.0" encoding="UTF-8"?>
<svg width="50px" height="50px" viewBox="0 0 50 50" version="1.1" xmlns="http://www.w3.org/2000/svg" xmlns:xlink="http://www.w3.org/1999/xlink">
    <!-- Generator: Sketch 52.6 (67491) - http://www.bohemiancoding.com/sketch -->
    <title>avito banner</title>
    <desc>Created with Sketch.</desc>
    <g id="Page-1" stroke="none" stroke-width="1" fill="none" fill-rule="evenodd">
        <g id="Socials" fill="#646464">
            <g id="linkedin">
                <path d="M24.8221239,49.6469298 C11.1132434,49.6469298 7.10542736e-14,38.631171 7.10542736e-14,25.0425439 C7.10542736e-14,11.4539167 11.1132434,0.438157895 24.8221239,0.438157895 C38.5310044,0.438157895 49.6442478,11.4539167 49.6442478,25.0425439 C49.6442478,38.631171 38.5310044,49.6469298 24.8221239,49.6469298 Z M39.6530973,27.0223684 C39.6530973,21.5903509 36.7265487,19.0622807 32.8230088,19.0622807 C29.670354,19.0622807 28.2641593,20.7815789 27.4756637,21.9842105 L27.4756637,22.0421053 L27.4362832,22.0421053 C27.4469027,22.0232456 27.4637168,22.0039474 27.4756637,21.9842105 L27.4756637,19.4776316 L21.5415929,19.4776316 C21.6212389,21.1368421 21.5415929,37.1657895 21.5415929,37.1657895 L27.4752212,37.1657895 L27.4752212,27.2868421 C27.4752212,26.7565789 27.5154867,26.2315789 27.6716814,25.8535088 C28.1017699,24.795614 29.0756637,23.7030702 30.7150442,23.7030702 C32.8632743,23.7030702 33.7199115,25.3258772 33.7199115,27.702193 L33.7199115,37.1662281 L39.6530973,37.1662281 L39.6530973,27.0223684 Z M15.3345133,10.9513158 C13.3048673,10.9513158 11.9769912,12.2719298 11.9769912,14.0070175 C11.9769912,15.7052632 13.2663717,17.0640351 15.2566372,17.0640351 L15.2951327,17.0640351 C17.3646018,17.0640351 18.6513274,15.7052632 18.6513274,14.0070175 C18.6119469,12.2719298 17.3646018,10.9513158 15.3345133,10.9513158 Z M12.329646,37.1662281 L18.2610619,37.1662281 L18.2610619,19.4776316 L12.329646,19.4776316 L12.329646,37.1662281 Z" id="Combined-Shape"></path>
            </g>
        </g>
    </g>
</svg>